HIERARCHY
ROOT mixamorig:Hips
{
	OFFSET -0.000000 0.997919 0.000000
	CHANNELS 6 Xposition Yposition Zposition Xrotation Yrotation Zrotation
	JOINT mixamorig:Spine
	{
		OFFSET -0.000000 0.099235 -0.012273
		CHANNELS 6 Xposition Yposition Zposition Xrotation Yrotation Zrotation
		JOINT mixamorig:Spine1
		{
			OFFSET -0.000012 0.116454 -0.014223
			CHANNELS 6 Xposition Yposition Zposition Xrotation Yrotation Zrotation
			JOINT mixamorig:Spine2
			{
				OFFSET -0.000011 0.133602 -0.016265
				CHANNELS 6 Xposition Yposition Zposition Xrotation Yrotation Zrotation
				JOINT mixamorig:Neck
				{
					OFFSET -0.000013 0.150325 0.007929
					CHANNELS 6 Xposition Yposition Zposition Xrotation Yrotation Zrotation
					JOINT mixamorig:Head
					{
						OFFSET -0.000009 0.103218 0.031424
						CHANNELS 6 Xposition Yposition Zposition Xrotation Yrotation Zrotation
						End Site
						{
							OFFSET -0.000009 0.107896 -0.000000
						}
					}
				}
				JOINT mixamorig:LeftShoulder
				{
					OFFSET 0.061050 0.091110 0.007055
					CHANNELS 6 Xposition Yposition Zposition Xrotation Yrotation Zrotation
					JOINT mixamorig:LeftArm
					{
						OFFSET 0.126551 -0.002648 -0.026009
						CHANNELS 3 Xrotation Yrotation Zrotation
						JOINT mixamorig:LeftForeArm
						{
							OFFSET 0.274047 0.000025 -0.000000
							CHANNELS 6 Xposition Yposition Zposition Xrotation Yrotation Zrotation
							JOINT mixamorig:LeftHand
							{
								OFFSET 0.276144 0.000025 0.000000
								CHANNELS 3 Xrotation Yrotation Zrotation
								End Site
								{
									OFFSET 0.276144 0.000024 0.000000
								}
							}
						}
					}
				}
				JOINT mixamorig:RightShoulder
				{
					OFFSET -0.061065 0.091100 0.007056
					CHANNELS 6 Xposition Yposition Zposition Xrotation Yrotation Zrotation
					JOINT mixamorig:RightArm
					{
						OFFSET -0.126550 -0.002671 -0.026009
						CHANNELS 3 Xrotation Yrotation Zrotation
						JOINT mixamorig:RightForeArm
						{
							OFFSET -0.274047 -0.000023 0.000000
							CHANNELS 3 Xrotation Yrotation Zrotation
							JOINT mixamorig:RightHand
							{
								OFFSET -0.276145 -0.000024 0.000000
								CHANNELS 6 Xposition Yposition Zposition Xrotation Yrotation Zrotation
								End Site
								{
									OFFSET -0.276145 -0.000024 0.000000
								}
							}
						}
					}
				}
			}
		}
	}
	JOINT mixamorig:LeftUpLeg
	{
		OFFSET 0.091245 -0.066564 -0.000554
		CHANNELS 6 Xposition Yposition Zposition Xrotation Yrotation Zrotation
		JOINT mixamorig:LeftLeg
		{
			OFFSET 0.002447 -0.405954 -0.005156
			CHANNELS 3 Xrotation Yrotation Zrotation
			JOINT mixamorig:LeftFoot
			{
				OFFSET -0.002447 -0.420479 -0.020592
				CHANNELS 3 Xrotation Yrotation Zrotation
				JOINT mixamorig:LeftToeBase
				{
					OFFSET 0.003735 -0.072086 0.139666
					CHANNELS 3 Xrotation Yrotation Zrotation
					End Site
					{
						OFFSET -0.002233 -0.002755 0.157176
					}
				}
			}
		}
	}
	JOINT mixamorig:RightUpLeg
	{
		OFFSET -0.091244 -0.066564 -0.000554
		CHANNELS 6 Xposition Yposition Zposition Xrotation Yrotation Zrotation
		JOINT mixamorig:RightLeg
		{
			OFFSET -0.002447 -0.405955 -0.005143
			CHANNELS 3 Xrotation Yrotation Zrotation
			JOINT mixamorig:RightFoot
			{
				OFFSET 0.002447 -0.420478 -0.020605
				CHANNELS 3 Xrotation Yrotation Zrotation
				JOINT mixamorig:RightToeBase
				{
					OFFSET -0.003735 -0.072085 0.139666
					CHANNELS 6 Xposition Yposition Zposition Xrotation Yrotation Zrotation
					End Site
					{
						OFFSET 0.002229 -0.002751 0.157176
					}
				}
			}
		}
	}
}
MOTION
Frames: 9
Frame Time: 0.033333
0.002626 0.989991 -0.001260 -3.755269 -5.224694 -3.518870 -0.000000 0.099235 -0.012273 3.294113 1.531847 2.482287 -0.000012 0.116454 -0.014223 1.151891 0.336567 1.553485 -0.000011 0.133602 -0.016265 1.126016 0.361146 1.556218 -0.000013 0.150325 0.007929 5.626474 -0.084472 0.451440 -0.000009 0.103219 0.031424 -7.563206 1.370452 -0.084388 0.061050 0.091109 0.007055 1.051717 -17.441947 -12.319079 3.918083 -19.988952 -69.764932 0.274047 0.000025 -0.000000 0.000118 -1.459360 -0.000002 -33.230230 -1.367579 -6.187406 -0.061065 0.091100 0.007056 1.204108 15.344570 14.706200 13.156347 27.556265 58.785615 -0.000578 6.693737 0.000036 -0.276145 -0.000024 0.000000 -20.178990 -0.515782 6.782497 0.091245 -0.066564 -0.000554 -11.191815 14.668794 10.313018 13.075039 2.038580 4.202899 0.852541 0.545459 -7.270812 -4.922207 0.000002 -0.000002 -0.091244 -0.066564 -0.000554 1.531528 -10.333682 3.523316 6.084256 -9.764750 -3.278447 -3.344964 -1.636866 3.053574 -0.003735 -0.072085 0.139666 -7.282872 -0.000007 0.000003 
0.002650 0.989991 -0.001332 -3.755372 -5.242180 -3.520563 -0.000000 0.099235 -0.012273 3.294101 1.531866 2.482827 -0.000012 0.116454 -0.014223 1.135000 0.336567 1.553485 -0.000011 0.133602 -0.016265 1.108873 0.361147 1.556218 -0.000013 0.150325 0.007929 5.626475 -0.084472 0.451441 -0.000009 0.103218 0.031424 -7.502315 1.370933 -0.070866 0.061050 0.091110 0.007055 1.050244 -17.491551 -12.337705 4.218049 -20.442235 -69.444056 0.274047 0.000025 -0.000000 0.000162 -1.740646 -0.000014 -33.608226 -1.473943 -6.214171 -0.061065 0.091100 0.007056 1.208645 15.352822 14.680657 13.458958 28.157909 58.184210 -0.000621 7.104294 0.000043 -0.276145 -0.000024 0.000000 -20.553882 -0.733835 6.918299 0.091245 -0.066564 -0.000554 -11.190418 14.669018 10.313201 13.059928 2.059094 4.202927 0.853745 0.545287 -7.282995 -4.922188 -0.000003 -0.000001 -0.091244 -0.066564 -0.000554 1.519516 -10.335188 3.531459 6.088376 -9.757432 -3.292004 -3.338726 -1.637881 3.055716 -0.003735 -0.072085 0.139666 -7.282890 -0.000005 0.000003 
0.002688 0.989986 -0.001486 -3.755686 -5.293477 -3.523614 -0.000000 0.099235 -0.012273 3.294115 1.530310 2.482496 -0.000012 0.116454 -0.014223 1.116577 0.333699 1.553484 -0.000011 0.133602 -0.016265 1.090268 0.360561 1.556218 -0.000013 0.150325 0.007929 5.626474 -0.084471 0.451441 -0.000009 0.103218 0.031424 -7.446772 1.366616 -0.063340 0.061050 0.091109 0.007055 1.052521 -17.527659 -12.335026 4.635940 -21.047155 -69.025441 0.274047 0.000025 -0.000000 0.000198 -2.229704 -0.000006 -34.214794 -1.717866 -6.377186 -0.061065 0.091100 0.007056 1.219018 15.416980 14.614289 13.488509 28.587245 57.592462 -0.000675 7.795356 0.000059 -0.276145 -0.000024 0.000000 -21.124950 -0.939867 7.238044 0.091245 -0.066564 -0.000554 -11.191158 14.668791 10.324077 13.050308 2.111048 4.192426 0.857234 0.545265 -7.294456 -4.922204 -0.000008 -0.000001 -0.091245 -0.066564 -0.000554 1.487035 -10.328266 3.533475 6.115831 -9.722540 -3.299038 -3.335945 -1.637743 3.052356 -0.003735 -0.072085 0.139666 -7.294041 0.000000 0.000002 
0.002738 0.989983 -0.001743 -3.756177 -5.373187 -3.527753 -0.000000 0.099235 -0.012273 3.294152 1.526886 2.481383 -0.000012 0.116454 -0.014223 1.097769 0.326817 1.544471 -0.000011 0.133602 -0.016265 1.071340 0.355391 1.546682 -0.000013 0.150325 0.007929 5.626474 -0.084470 0.455852 -0.000009 0.103218 0.031424 -7.404466 1.346925 -0.052297 0.061050 0.091109 0.007055 1.054116 -17.560553 -12.326935 5.100501 -21.673836 -68.500917 0.274047 0.000025 -0.000000 0.000288 -2.999770 0.000027 -34.968960 -2.254485 -6.785690 -0.061065 0.091100 0.007056 1.238870 15.549195 14.499334 13.089672 28.755247 57.080611 -0.000781 8.896675 0.000063 -0.276145 -0.000024 0.000000 -21.830359 -0.942493 7.632737 0.091245 -0.066564 -0.000554 -11.183091 14.663979 10.334258 13.037941 2.192438 4.180247 0.868440 0.545456 -7.297105 -4.922208 -0.000011 -0.000002 -0.091244 -0.066564 -0.000554 1.445824 -10.317670 3.527266 6.151112 -9.666167 -3.297635 -3.331751 -1.636746 3.045243 -0.003735 -0.072085 0.139666 -7.302084 -0.000013 0.000002 
0.002787 0.989986 -0.002108 -3.770171 -5.465694 -3.533478 -0.000000 0.099235 -0.012273 3.291123 1.523278 2.479726 -0.000012 0.116455 -0.014223 1.079231 0.319268 1.529402 -0.000011 0.133602 -0.016265 1.052728 0.348517 1.531569 -0.000013 0.150325 0.007929 5.638584 -0.087632 0.472862 -0.000009 0.103218 0.031424 -7.361598 1.313747 -0.025432 0.061050 0.091109 0.007055 1.053864 -17.597279 -12.322380 5.524108 -22.177237 -67.881152 0.274047 0.000025 0.000000 0.000363 -4.112316 0.000041 -35.886097 -3.283072 -7.422420 -0.061065 0.091100 0.007056 1.269336 15.733354 14.326844 12.176160 28.801593 56.708971 -0.000899 10.265468 0.000068 -0.276145 -0.000024 0.000000 -22.424939 -0.672221 7.843700 0.091245 -0.066564 -0.000554 -11.165959 14.655016 10.343422 13.019985 2.284538 4.166703 0.890478 0.545785 -7.303351 -4.922201 0.000000 -0.000004 -0.091244 -0.066564 -0.000554 1.402686 -10.313441 3.514220 6.194555 -9.592339 -3.287946 -3.320203 -1.634432 3.030882 -0.003735 -0.072085 0.139666 -7.305842 -0.000001 0.000006 
0.002814 0.989989 -0.002567 -3.795525 -5.562310 -3.543830 -0.000000 0.099235 -0.012273 3.284394 1.519484 2.469689 -0.000012 0.116454 -0.014223 1.059480 0.311793 1.510315 -0.000011 0.133602 -0.016265 1.032937 0.340441 1.512843 -0.000013 0.150325 0.007929 5.656144 -0.095360 0.496294 -0.000009 0.103218 0.031424 -7.312016 1.281990 0.011365 0.061050 0.091109 0.007055 1.054430 -17.627794 -12.321197 5.838531 -22.550810 -67.199486 0.274047 0.000025 -0.000000 0.000498 -5.503179 0.000028 -37.122915 -4.885910 -8.159892 -0.061065 0.091100 0.007056 1.314374 15.935490 14.081530 10.839374 29.092730 56.404512 -0.001019 11.626543 0.000097 -0.276145 -0.000024 0.000000 -22.648858 -0.342028 7.608562 0.091245 -0.066564 -0.000554 -11.142652 14.653710 10.362041 12.994005 2.367878 4.152472 0.927583 0.545094 -7.325677 -4.921288 -0.000001 -0.000000 -0.091244 -0.066564 -0.000554 1.369172 -10.305500 3.511296 6.229992 -9.522185 -3.281555 -3.300098 -1.630891 3.011425 -0.003735 -0.072085 0.139666 -7.313644 -0.000000 0.000005 
0.002810 0.989992 -0.003097 -3.831583 -5.654511 -3.567174 -0.000000 0.099235 -0.012273 3.274920 1.515823 2.458728 -0.000012 0.116455 -0.014223 1.033981 0.305287 1.488957 -0.000011 0.133602 -0.016265 1.007430 0.332336 1.492254 -0.000013 0.150325 0.007929 5.681041 -0.103906 0.518713 -0.000009 0.103218 0.031424 -7.239629 1.247714 0.044648 0.061050 0.091110 0.007055 1.055820 -17.637186 -12.322541 6.018342 -22.953537 -66.491099 0.274047 0.000025 -0.000000 0.000623 -6.981330 0.000039 -38.822170 -6.895330 -8.922242 -0.061065 0.091100 0.007056 1.380080 16.140051 13.736009 9.483554 29.877194 55.783661 -0.001184 13.460241 0.000137 -0.276145 -0.000024 0.000000 -22.492192 -0.298396 6.899610 0.091245 -0.066564 -0.000554 -11.112769 14.660538 10.395874 12.956792 2.440815 4.137860 0.976074 0.543643 -7.353966 -4.920160 0.000005 -0.000001 -0.091244 -0.066564 -0.000554 1.362167 -10.287485 3.528559 6.230512 -9.465347 -3.278313 -3.260225 -1.626196 2.987671 -0.003735 -0.072085 0.139666 -7.328758 -0.000007 0.000003 
0.002778 0.990000 -0.003656 -3.879525 -5.725143 -3.595869 -0.000000 0.099235 -0.012273 3.260308 1.512421 2.446753 -0.000012 0.116454 -0.014223 0.997786 0.298660 1.464525 -0.000011 0.133602 -0.016265 0.971180 0.324243 1.468569 -0.000013 0.150325 0.007929 5.720060 -0.112672 0.534715 -0.000009 0.103218 0.031424 -7.131947 1.200140 0.066101 0.061050 0.091110 0.007055 1.055929 -17.637179 -12.331966 6.167281 -23.558878 -65.700908 0.274047 0.000025 -0.000000 0.000787 -8.630823 0.000047 -40.991599 -8.898481 -9.664418 -0.061065 0.091100 0.007056 1.473602 16.371163 13.256562 8.683713 30.876560 54.369645 -0.001547 17.340208 0.000241 -0.276145 -0.000024 0.000000 -22.088280 -0.651099 5.910132 0.091245 -0.066564 -0.000554 -11.068804 14.672891 10.431715 12.902308 2.493108 4.129288 1.032229 0.542545 -7.368142 -4.918785 0.000005 0.000001 -0.091244 -0.066564 -0.000554 1.385183 -10.269458 3.556764 6.201508 -9.424176 -3.275851 -3.208288 -1.621073 2.961250 -0.003735 -0.072085 0.139666 -7.341247 -0.000007 0.000006 
0.002721 0.990019 -0.004215 -3.941929 -5.765262 -3.623253 -0.000000 0.099235 -0.012273 3.240450 1.509411 2.432781 -0.000012 0.116454 -0.014223 0.950459 0.291488 1.434272 -0.000011 0.133601 -0.016265 0.923696 0.315329 1.438798 -0.000013 0.150325 0.007929 5.774636 -0.125923 0.546417 -0.000009 0.103218 0.031424 -6.990774 1.132977 0.076892 0.061050 0.091109 0.007055 1.054657 -17.647684 -12.341795 6.603898 -24.393145 -64.603795 0.274047 0.000025 -0.000000 0.001017 -11.279401 0.000100 -43.571600 -10.398646 -10.127416 -0.061065 0.091100 0.007056 1.601254 16.680567 12.616937 8.428166 31.376335 52.341826 -0.002255 24.348964 0.000479 -0.276145 -0.000024 0.000000 -21.296888 -1.190859 4.756061 0.091245 -0.066564 -0.000554 -11.005281 14.682842 10.458930 12.832834 2.523334 4.126482 1.093784 0.541420 -7.363986 -4.916700 -0.000001 -0.000002 -0.091244 -0.066564 -0.000554 1.442668 -10.259717 3.588304 6.144764 -9.395733 -3.274435 -3.148221 -1.615983 2.934215 -0.003735 -0.072085 0.139666 -7.343984 0.000002 0.000007 
